<svg xmlns="http://www.w3.org/2000/svg" xml:space="preserve" stroke-linejoin="round" stroke-miterlimit="1.414" clip-rule="evenodd" viewBox="0 0 24 24"><path fill="#1e88e5" d="M19 20H4a2 2 0 0 1-2-2V6c0-1.11.89-2 2-2h6l2 2h7c1.097 0 2 .903 2 2H4v10l2.14-8h17.07l-2.28 8.5c-.23.87-1.01 1.5-1.93 1.5"/><path fill="#bbdefb" d="M15.508 21.639c-4.692 0-8.492-1.925-8.492-4.302s3.8-4.303 8.492-4.303S24 14.96 24 17.337s-3.8 4.302-8.492 4.302m-3.673-5.626c.383 0 .644.071.772.22.127.141.155.396.092.729-.071.375-.206.615-.41.77q-.298.235-.914.234h-.615l.375-1.953zM9.36 19.941h1.019l.24-1.239h.87c.383 0 .694-.042.942-.12q.37-.126.68-.41c.169-.156.303-.326.41-.517.106-.184.184-.396.219-.623q.17-.83-.234-1.287c-.276-.312-.7-.46-1.288-.46h-1.953zm5.13-5.895-.906 4.656h1.005l.524-2.667h.806q.384 0 .503.127c.078.085.092.24.05.467l-.404 2.073h1.026l.417-2.172c.092-.439.022-.757-.19-.962q-.32-.285-1.168-.283h-.899l.255-1.239zm5.266 1.967q.582-.002.77.22c.128.141.157.396.093.729-.07.375-.205.615-.403.771q-.307.234-.92.234h-.602l.354-1.953zm-2.477 3.927h1.019l.24-1.238h.864c.389 0 .707-.043.955-.12.248-.086.46-.22.672-.411a1.9 1.9 0 0 0 .41-.517 2 2 0 0 0 .227-.622c.106-.552.028-.984-.24-1.288-.255-.312-.701-.46-1.288-.46H18.19z"/></svg>