<svg xmlns="http://www.w3.org/2000/svg" xmlns:xlink="http://www.w3.org/1999/xlink" viewBox="0,0,255.99489,255.99489" width="512px" height="512px" fill-rule="nonzero"><g fill="none" fill-rule="nonzero" stroke="none" stroke-width="1" stroke-linecap="butt" stroke-linejoin="miter" stroke-miterlimit="10" stroke-dasharray="" stroke-dashoffset="0" font-family="none" font-weight="none" font-size="none" text-anchor="none" style="mix-blend-mode: normal"><g transform="scale(4,4)"><path d="M51.98,49.54c-2.9,3.27 -6.36,5.69 -10.09,7.26c-1.09,0.45 -2.33,-0.14 -2.68,-1.27l-1.14,-3.69l-3.04,-9.83c-0.27,-0.88 0.07,-1.85 0.87,-2.3c3.04,-1.71 5.1,-4.97 5.1,-8.71c0,-5.62 -4.64,-10.16 -10.3,-10c-5.17,0.16 -9.5,4.44 -9.69,9.61c-0.15,3.9 1.93,7.31 5.07,9.09c0.81,0.46 1.16,1.45 0.88,2.35l-3.03,9.79l-1.14,3.69c-0.35,1.13 -1.59,1.72 -2.68,1.27c-3.73,-1.57 -7.19,-3.99 -10.09,-7.26c-9.51,-10.73 -9.25,-27.28 0.58,-37.72c11.08,-11.76 29.72,-11.76 40.8,0c9.83,10.44 10.09,26.99 0.58,37.72z" fill="#c2ff18"></path><path d="M53,31c0,9.68 -6.25,17.9 -14.93,20.84l-3.04,-9.83c-0.27,-0.88 0.07,-1.85 0.87,-2.3c3.04,-1.71 5.1,-4.97 5.1,-8.71c0,-5.62 -4.64,-10.16 -10.3,-10c-5.17,0.16 -9.5,4.44 -9.69,9.61c-0.15,3.9 1.93,7.31 5.07,9.09c0.81,0.46 1.16,1.45 0.88,2.35l-3.03,9.79c-8.68,-2.94 -14.93,-11.16 -14.93,-20.84c0,-12.15 9.85,-22 22,-22c12.15,0 22,9.85 22,22z" fill="#bdcb36"></path><path d="M52.126,11.133c-5.547,-5.89 -13.049,-9.133 -21.126,-9.133c-8.077,0 -15.579,3.243 -21.126,9.133c-10.178,10.806 -10.444,27.97 -0.604,39.073c2.92,3.294 6.438,5.821 10.457,7.514c0.366,0.154 0.756,0.23 1.147,0.23c0.431,0 0.862,-0.094 1.262,-0.279c0.771,-0.359 1.356,-1.031 1.607,-1.842l4.175,-13.487c0.42,-1.358 -0.144,-2.837 -1.344,-3.517c-2.945,-1.666 -4.694,-4.799 -4.566,-8.175c0.175,-4.633 4.088,-8.512 8.723,-8.646c2.443,-0.079 4.78,0.83 6.541,2.54c1.761,1.71 2.728,4.003 2.728,6.456c0,3.241 -1.761,6.244 -4.595,7.838c-1.188,0.668 -1.749,2.125 -1.334,3.465l4.187,13.525c0.251,0.812 0.837,1.483 1.607,1.843c0.762,0.354 1.64,0.372 2.409,0.049c4.019,-1.692 7.537,-4.22 10.457,-7.514c9.839,-11.103 9.573,-28.267 -0.605,-39.073zM51.233,48.88c-2.719,3.067 -5.995,5.422 -9.736,6.996c-0.254,0.106 -0.535,0.101 -0.788,-0.018c-0.26,-0.121 -0.458,-0.348 -0.542,-0.621l-0.867,-2.801c8.827,-3.414 14.7,-11.899 14.7,-21.436c0,-6.962 -3.104,-13.475 -8.515,-17.866c-0.428,-0.348 -1.058,-0.283 -1.407,0.146c-0.348,0.429 -0.283,1.059 0.146,1.406c4.942,4.011 7.776,9.958 7.776,16.314c0,8.661 -5.304,16.372 -13.291,19.523l-2.728,-8.812c-0.138,-0.445 0.033,-0.921 0.405,-1.13c3.463,-1.947 5.614,-5.618 5.614,-9.581c0,-2.998 -1.185,-5.801 -3.336,-7.891c-2.151,-2.089 -4.98,-3.182 -7.992,-3.105c-5.666,0.166 -10.45,4.908 -10.664,10.57c-0.156,4.127 1.982,7.956 5.58,9.991c0.387,0.22 0.563,0.718 0.419,1.185l-4.175,13.488c-0.084,0.272 -0.282,0.499 -0.542,0.62c-0.253,0.119 -0.534,0.125 -0.788,0.018c-3.741,-1.574 -7.017,-3.929 -9.736,-6.996c-9.16,-10.337 -8.913,-26.314 0.563,-36.376c5.166,-5.483 12.151,-8.504 19.671,-8.504c7.52,0 14.505,3.021 19.67,8.504c9.476,10.061 9.724,26.039 0.563,36.376z" fill="#746a65"></path><path d="M14.062,39.608c-0.25,-0.491 -0.852,-0.687 -1.345,-0.438l-1.783,0.906c-0.492,0.25 -0.688,0.853 -0.438,1.345c0.177,0.347 0.528,0.547 0.893,0.547c0.152,0 0.307,-0.035 0.452,-0.108l1.783,-0.906c0.492,-0.251 0.688,-0.853 0.438,-1.346zM15.381,43.516l-1.488,1.337c-0.411,0.369 -0.444,1.002 -0.075,1.412c0.197,0.22 0.47,0.332 0.744,0.332c0.238,0 0.477,-0.085 0.668,-0.256l1.488,-1.337c0.411,-0.369 0.444,-1.002 0.075,-1.412c-0.368,-0.41 -1.001,-0.445 -1.412,-0.076zM11.029,31.186c0.018,0.001 0.036,0.001 0.054,0.001c0.528,0 0.969,-0.413 0.998,-0.946c0.029,-0.552 -0.394,-1.022 -0.945,-1.053l-1.997,-0.106c-0.546,-0.022 -1.022,0.394 -1.052,0.945c-0.03,0.551 0.394,1.022 0.945,1.053zM19.08,47.024l-1.092,1.676c-0.301,0.463 -0.17,1.082 0.292,1.384c0.168,0.109 0.358,0.162 0.545,0.162c0.327,0 0.647,-0.16 0.839,-0.454l1.091,-1.676c0.301,-0.463 0.17,-1.082 -0.292,-1.384c-0.463,-0.3 -1.083,-0.17 -1.383,0.292zM12.455,35.055c-0.114,-0.54 -0.643,-0.884 -1.186,-0.771l-1.957,0.414c-0.541,0.114 -0.886,0.646 -0.771,1.186c0.1,0.471 0.515,0.793 0.978,0.793c0.068,0 0.138,-0.007 0.208,-0.021l1.957,-0.414c0.54,-0.116 0.885,-0.647 0.771,-1.187zM41.351,10.456c-0.75,-0.378 -1.523,-0.717 -2.301,-1.007c-0.516,-0.193 -1.094,0.069 -1.287,0.587c-0.193,0.518 0.07,1.094 0.587,1.286c0.709,0.265 1.415,0.574 2.099,0.919c0.145,0.073 0.298,0.107 0.45,0.107c0.366,0 0.718,-0.201 0.894,-0.55c0.249,-0.491 0.051,-1.093 -0.442,-1.342zM34.654,8.291c-7.27,-1.167 -14.717,1.244 -19.917,6.445c-2.592,2.593 -4.479,5.662 -5.605,9.124c-0.171,0.525 0.116,1.09 0.641,1.261c0.103,0.033 0.207,0.049 0.31,0.049c0.421,0 0.813,-0.269 0.951,-0.69c1.029,-3.159 2.751,-5.961 5.118,-8.329c4.749,-4.747 11.55,-6.949 18.187,-5.885c0.542,0.09 1.058,-0.283 1.146,-0.829c0.086,-0.545 -0.285,-1.059 -0.831,-1.146z" fill="#746a65"></path></g></g></svg>